<mxfile host="app.diagrams.net" modified="2022-11-12T11:44:43.111Z" agent="5.0 (Macintosh; Intel Mac OS X 10_15_7) AppleWebKit/605.1.15 (KHTML, like Gecko) Version/16.1 Safari/605.1.15" etag="5NxHyBBDZpgJGZXGYjoF" version="20.5.3" type="github">
  <diagram id="1NX-EiIDLTA8QGMtS9Su" name="Page-1">
    <mxGraphModel dx="738" dy="374" grid="1" gridSize="10" guides="1" tooltips="1" connect="1" arrows="1" fold="1" page="1" pageScale="1" pageWidth="850" pageHeight="1100" math="0" shadow="0">
      <root>
        <mxCell id="0" />
        <mxCell id="1" parent="0" />
        <mxCell id="GwHIe16ou9XjmFjGuvrJ-7" style="edgeStyle=orthogonalEdgeStyle;rounded=0;orthogonalLoop=1;jettySize=auto;html=1;exitX=0.5;exitY=1;exitDx=0;exitDy=0;entryX=0.5;entryY=0;entryDx=0;entryDy=0;" edge="1" parent="1" source="GwHIe16ou9XjmFjGuvrJ-1" target="GwHIe16ou9XjmFjGuvrJ-6">
          <mxGeometry relative="1" as="geometry" />
        </mxCell>
        <mxCell id="GwHIe16ou9XjmFjGuvrJ-1" value="" style="whiteSpace=wrap;html=1;aspect=fixed;" vertex="1" parent="1">
          <mxGeometry x="345" y="150" width="80" height="80" as="geometry" />
        </mxCell>
        <mxCell id="GwHIe16ou9XjmFjGuvrJ-3" style="edgeStyle=orthogonalEdgeStyle;rounded=0;orthogonalLoop=1;jettySize=auto;html=1;entryX=0;entryY=0.5;entryDx=0;entryDy=0;" edge="1" parent="1" source="GwHIe16ou9XjmFjGuvrJ-2" target="GwHIe16ou9XjmFjGuvrJ-1">
          <mxGeometry relative="1" as="geometry" />
        </mxCell>
        <mxCell id="GwHIe16ou9XjmFjGuvrJ-2" value="" style="ellipse;whiteSpace=wrap;html=1;aspect=fixed;" vertex="1" parent="1">
          <mxGeometry x="160" y="150" width="80" height="80" as="geometry" />
        </mxCell>
        <mxCell id="GwHIe16ou9XjmFjGuvrJ-5" style="edgeStyle=orthogonalEdgeStyle;rounded=0;orthogonalLoop=1;jettySize=auto;html=1;entryX=0.5;entryY=0;entryDx=0;entryDy=0;" edge="1" parent="1" source="GwHIe16ou9XjmFjGuvrJ-4" target="GwHIe16ou9XjmFjGuvrJ-1">
          <mxGeometry relative="1" as="geometry" />
        </mxCell>
        <mxCell id="GwHIe16ou9XjmFjGuvrJ-4" value="Hello World！" style="rounded=1;whiteSpace=wrap;html=1;fontFamily=Comic Sans MS;" vertex="1" parent="1">
          <mxGeometry x="325" y="20" width="120" height="60" as="geometry" />
        </mxCell>
        <mxCell id="GwHIe16ou9XjmFjGuvrJ-6" value="" style="ellipse;whiteSpace=wrap;html=1;" vertex="1" parent="1">
          <mxGeometry x="325" y="280" width="120" height="80" as="geometry" />
        </mxCell>
      </root>
    </mxGraphModel>
  </diagram>
</mxfile>
